HIERARCHY
ROOT Hips
{
  OFFSET 5.72205e-005 65.662 3.42586
  CHANNELS 6 Xposition Yposition Zposition Zrotation Xrotation Yrotation
  JOINT Chest
  {
    OFFSET 0 8.7983 -4.7612
    CHANNELS 3 Zrotation Xrotation Yrotation
    JOINT Chest2
    {
      OFFSET 0 8.0291 0.4195
      CHANNELS 3 Zrotation Xrotation Yrotation
      JOINT Chest3
      {
        OFFSET 0 9.9351 -2.2114
        CHANNELS 3 Zrotation Xrotation Yrotation
        JOINT Neck
        {
          OFFSET 0 22.3885 -0.4656
          CHANNELS 3 Zrotation Xrotation Yrotation
          JOINT Head
          {
            OFFSET -0.0001 12.643 3.4389
            CHANNELS 3 Zrotation Xrotation Yrotation
            End Site
            {
              OFFSET 0.0001 17.6655 0.5274
            }
          }
        }
        JOINT LeftCollar
        {
          OFFSET 2.2603 21.606 7.4023
          CHANNELS 3 Zrotation Xrotation Yrotation
          JOINT LeftShoulder
          {
            OFFSET 13.5163 -1.1332 -5.0146
            CHANNELS 3 Zrotation Xrotation Yrotation
            JOINT LeftElbow
            {
              OFFSET -0.0995 -28.05 -0.2431
              CHANNELS 3 Zrotation Xrotation Yrotation
              JOINT LeftWrist
              {
                OFFSET 0.0679 -23.3996 -0.1402
                CHANNELS 3 Zrotation Xrotation Yrotation
                JOINT LeftFinger1
                {
                  OFFSET 0.7932 -9.069 2.5189
                  CHANNELS 3 Zrotation Xrotation Yrotation
                  JOINT LeftFinger11
                  {
                    OFFSET -0.8272 -3.3923 0.5977
                    CHANNELS 3 Zrotation Xrotation Yrotation
                    JOINT LeftFinger12
                    {
                      OFFSET -0.5649 -2.3158 0.4082
                      CHANNELS 3 Zrotation Xrotation Yrotation
                      End Site
                      {
                        OFFSET -0.4919 -1.6479 0.2673
                      }
                    }
                  }
                }
                JOINT LeftFinger2
                {
                  OFFSET 0.9159 -9.2044 0.2193
                  CHANNELS 3 Zrotation Xrotation Yrotation
                  JOINT LeftFinger21
                  {
                    OFFSET 0.0117 -4.1944 -0.0248
                    CHANNELS 3 Zrotation Xrotation Yrotation
                    JOINT LeftFinger22
                    {
                      OFFSET 0.0071 -2.3249 -0.0142
                      CHANNELS 3 Zrotation Xrotation Yrotation
                      End Site
                      {
                        OFFSET -0.1475 -2.0882 0.0028
                      }
                    }
                  }
                }
                JOINT LeftFinger3
                {
                  OFFSET 0.6113 -8.7231 -2.0637
                  CHANNELS 3 Zrotation Xrotation Yrotation
                  JOINT LeftFinger31
                  {
                    OFFSET -0.1927 -3.8059 -0.2383
                    CHANNELS 3 Zrotation Xrotation Yrotation
                    JOINT LeftFinger32
                    {
                      OFFSET -0.1091 -2.1688 -0.1362
                      CHANNELS 3 Zrotation Xrotation Yrotation
                      End Site
                      {
                        OFFSET -0.2358 -1.9176 -0.0906
                      }
                    }
                  }
                }
                JOINT LeftFinger4
                {
                  OFFSET -0.6151 -8.0947 -3.5641
                  CHANNELS 3 Zrotation Xrotation Yrotation
                  JOINT LeftFinger41
                  {
                    OFFSET -0.4882 -2.341 -0.6462
                    CHANNELS 3 Zrotation Xrotation Yrotation
                    JOINT LeftFinger42
                    {
                      OFFSET -0.3575 -1.7167 -0.4742
                      CHANNELS 3 Zrotation Xrotation Yrotation
                      End Site
                      {
                        OFFSET -0.4187 -1.5237 -0.3496
                      }
                    }
                  }
                }
                JOINT LeftFinger0
                {
                  OFFSET -1.42 -1.8761 1.4223
                  CHANNELS 3 Zrotation Xrotation Yrotation
                  JOINT LeftFinger01
                  {
                    OFFSET -1.1471 -3.4929 2.6334
                    CHANNELS 3 Zrotation Xrotation Yrotation
                    JOINT LeftFinger02
                    {
                      OFFSET -0.823 -2.3 1.6571
                      CHANNELS 3 Zrotation Xrotation Yrotation
                      End Site
                      {
                        OFFSET -0.5822 -1.6914 1.1582
                      }
                    }
                  }
                }
              }
            }
          }
        }
        JOINT RightCollar
        {
          OFFSET -2.2603 21.606 7.4023
          CHANNELS 3 Zrotation Xrotation Yrotation
          JOINT RightShoulder
          {
            OFFSET -13.5187 -1.1334 -5.0155
            CHANNELS 3 Zrotation Xrotation Yrotation
            JOINT RightElbow
            {
              OFFSET 0.0994 -28.0499 -0.2431
              CHANNELS 3 Zrotation Xrotation Yrotation
              JOINT RightWrist
              {
                OFFSET -0.0679 -23.3996 -0.1402
                CHANNELS 3 Zrotation Xrotation Yrotation
                JOINT RightFinger1
                {
                  OFFSET -0.7932 -9.0691 2.5189
                  CHANNELS 3 Zrotation Xrotation Yrotation
                  JOINT RightFinger11
                  {
                    OFFSET 0.8272 -3.3923 0.5977
                    CHANNELS 3 Zrotation Xrotation Yrotation
                    JOINT RightFinger12
                    {
                      OFFSET 0.565 -2.3158 0.4082
                      CHANNELS 3 Zrotation Xrotation Yrotation
                      End Site
                      {
                        OFFSET 0.4919 -1.6479 0.2673
                      }
                    }
                  }
                }
                JOINT RightFinger2
                {
                  OFFSET -0.916 -9.2044 0.2193
                  CHANNELS 3 Zrotation Xrotation Yrotation
                  JOINT RightFinger21
                  {
                    OFFSET -0.0117 -4.1944 -0.0248
                    CHANNELS 3 Zrotation Xrotation Yrotation
                    JOINT RightFinger22
                    {
                      OFFSET -0.0071 -2.3249 -0.0142
                      CHANNELS 3 Zrotation Xrotation Yrotation
                      End Site
                      {
                        OFFSET 0.1475 -2.0882 0.0028
                      }
                    }
                  }
                }
                JOINT RightFinger3
                {
                  OFFSET -0.6113 -8.7231 -2.0637
                  CHANNELS 3 Zrotation Xrotation Yrotation
                  JOINT RightFinger31
                  {
                    OFFSET 0.1927 -3.8059 -0.2383
                    CHANNELS 3 Zrotation Xrotation Yrotation
                    JOINT RightFinger32
                    {
                      OFFSET 0.1091 -2.1688 -0.1362
                      CHANNELS 3 Zrotation Xrotation Yrotation
                      End Site
                      {
                        OFFSET 0.2358 -1.9176 -0.0906
                      }
                    }
                  }
                }
                JOINT RightFinger4
                {
                  OFFSET 0.6151 -8.0947 -3.564
                  CHANNELS 3 Zrotation Xrotation Yrotation
                  JOINT RightFinger41
                  {
                    OFFSET 0.4882 -2.341 -0.6462
                    CHANNELS 3 Zrotation Xrotation Yrotation
                    JOINT RightFinger42
                    {
                      OFFSET 0.3574 -1.7166 -0.4742
                      CHANNELS 3 Zrotation Xrotation Yrotation
                      End Site
                      {
                        OFFSET 0.4187 -1.5237 -0.3496
                      }
                    }
                  }
                }
                JOINT RightFinger0
                {
                  OFFSET 1.4199 -1.8761 1.4221
                  CHANNELS 3 Zrotation Xrotation Yrotation
                  JOINT RightFinger01
                  {
                    OFFSET 1.1472 -3.4929 2.6336
                    CHANNELS 3 Zrotation Xrotation Yrotation
                    JOINT RightFinger02
                    {
                      OFFSET 0.8229 -2.3 1.6571
                      CHANNELS 3 Zrotation Xrotation Yrotation
                      End Site
                      {
                        OFFSET 0.5822 -1.6914 1.1582
                      }
                    }
                  }
                }
              }
            }
          }
        }
      }
    }
  }
  JOINT RightHip
  {
    OFFSET -9.412 3.9771 -0.7758
    CHANNELS 3 Zrotation Xrotation Yrotation
    JOINT RightKnee
    {
      OFFSET -0.7531 -40.938 0
      CHANNELS 3 Zrotation Xrotation Yrotation
      JOINT RightAnkle
      {
        OFFSET 0 -40.1986 0
        CHANNELS 3 Zrotation Xrotation Yrotation
        JOINT RightToe
        {
          OFFSET 0 -4.4182 9.239
          CHANNELS 3 Zrotation Xrotation Yrotation
          End Site
          {
            OFFSET 0 0 6.1981
          }
        }
      }
    }
  }
  JOINT LeftHip
  {
    OFFSET 9.4119 3.9773 -0.7758
    CHANNELS 3 Zrotation Xrotation Yrotation
    JOINT LeftKnee
    {
      OFFSET 0.7532 -40.9383 0
      CHANNELS 3 Zrotation Xrotation Yrotation
      JOINT LeftAnkle
      {
        OFFSET 0 -40.1986 0
        CHANNELS 3 Zrotation Xrotation Yrotation
        JOINT LeftToe
        {
          OFFSET 0 -4.4182 9.239
          CHANNELS 3 Zrotation Xrotation Yrotation
          End Site
          {
            OFFSET 0 0 6.1981
          }
        }
      }
    }
  }
}
MOTION
Frames:	6
Frame Time:	0.0333333
0.803913 13.2181 13.2733 10.6722 -89.4199 -169.207 -0.14282 -5.76765 -0.741309 -0.363863 -11.5328 -1.50871 -0.363866 -11.5329 -1.50872 -5.00913 3.0518 -20.7342 -14.7802 -18.4863 -19.7836 3.36432 37.3113 2.96222 132.531 -37.1868 -1.49191 63.3483 -57.0205 46.4171 88.9426 43.6208 -2.84484 1.31387e-006 1.09581e-007 -3.3475e-006 1.39149e-015 -1.59028e-015 2.83268e-015 -1.31387e-006 -1.09581e-007 3.3475e-006 1.31387e-006 1.09581e-007 -3.3475e-006 -0.0128169 0.00233021 8.32996e-005 -7.95139e-016 0 -1.59028e-015 1.31387e-006 1.09581e-007 -3.3475e-006 -0.0160507 0.0030079 0.000863999 -9.93923e-016 0 -1.49089e-016 1.31387e-006 1.09581e-007 -3.3475e-006 -0.0126213 0.00313024 0.00283519 1.98785e-016 1.59028e-015 -4.72114e-015 1.31387e-006 1.09581e-007 -3.3475e-006 1.39149e-015 -1.59028e-015 2.83268e-015 -1.31387e-006 -1.09581e-007 3.3475e-006 44.2682 3.60419 -12.7477 -107.94 -47.7063 18.1997 -51.9939 -56.9997 -40.2432 -58.1129 -15.3665 -3.24687 7.95139e-016 0 -1.98785e-015 7.95139e-016 -3.18055e-015 1.09332e-015 -7.95139e-016 -1.59028e-015 9.93923e-016 7.95139e-016 0 -1.98785e-015 0.0129513 0.00232194 -9.5635e-005 0 0 -3.8763e-015 7.95139e-016 0 -1.98785e-015 0.0163437 0.00304268 -0.000887614 -1.10348e-032 -1.59028e-015 -3.97569e-016 7.95139e-016 0 -1.98785e-015 0.0145975 0.00369304 -0.0032651 -1.15234e-005 -3.16211e-006 -5.52188e-006 7.95139e-016 0 -1.98785e-015 7.95139e-016 -3.18055e-015 1.09332e-015 -7.95139e-016 -1.59028e-015 9.93923e-016 -88.2381 -24.099 -86.1052 129.862 80.1016 -126.888 -24.2503 42.193 24.9446 1.65061e-007 2.0614e-006 4.13677e-006 88.2319 -24.1078 86.0826 -129.855 80.1024 126.872 24.229 42.1952 -24.9425 4.87482e-006 2.99001e-006 -1.57402e-006 
0.804377 13.368 13.341 151.483 -89.7638 -28.3916 -0.138296 -6.05318 -0.74262 -0.359025 -12.104 -1.5128 -0.359026 -12.1041 -1.51281 -5.00842 2.89222 -20.7482 -14.8054 -18.7687 -19.8623 3.58624 37.7968 2.45937 132.351 -37.1729 -1.6353 62.4232 -56.8702 45.6444 88.9426 43.6208 -2.84486 -1.98785e-016 1.59028e-015 -2.98177e-015 -9.93923e-016 0 -2.90723e-015 -1.19271e-015 -1.59028e-015 -2.83268e-015 -1.98785e-016 1.59028e-015 -2.98177e-015 -0.0128102 0.00232917 8.68589e-005 -3.15644e-006 -7.76163e-007 1.95875e-006 -1.98785e-016 1.59028e-015 -2.98177e-015 -0.0160586 0.00299591 0.000855692 1.98785e-016 1.59028e-015 5.64051e-015 -1.98785e-016 1.59028e-015 -2.98177e-015 -0.0125825 0.00312549 0.00283394 -6.13528e-006 -5.63665e-006 -6.84802e-006 -1.98785e-016 1.59028e-015 -2.98177e-015 -9.93923e-016 0 -2.90723e-015 -1.19271e-015 -1.59028e-015 -2.83268e-015 44.4045 3.87527 -12.6993 -107.801 -47.6066 18.322 -51.3039 -56.8003 -39.6595 -57.9197 -15.5627 -3.32372 2.86202e-006 6.44845e-006 -1.76777e-006 -5.01419e-006 -6.15274e-006 9.62348e-007 2.15217e-006 -2.95706e-007 8.05423e-007 2.86202e-006 6.44845e-006 -1.76777e-006 0.0129487 0.00231021 -8.55007e-005 1.04097e-005 -8.46078e-006 1.6314e-005 2.86202e-006 6.44845e-006 -1.76777e-006 0.0163297 0.00302747 -0.00086648 7.95139e-016 3.18055e-015 -5.1684e-015 2.86202e-006 6.44845e-006 -1.76777e-006 0.0145734 0.00366248 -0.00323993 7.14373e-006 6.06901e-006 -5.43602e-006 2.86202e-006 6.44845e-006 -1.76777e-006 -5.01419e-006 -6.15274e-006 9.62348e-007 2.15217e-006 -2.95706e-007 8.05423e-007 -88.665 -24.5669 -86.7129 129.938 80.0909 -126.954 -23.6138 42.3902 24.4605 5.19692e-007 -3.70658e-006 6.77284e-007 88.6589 -24.5754 86.6908 -129.93 80.0919 126.937 23.5933 42.3922 -24.4588 1.71944e-005 9.13713e-006 -1.40381e-006 
0.804847 13.5184 13.4073 173.158 -89.0078 -6.71246 -0.133766 -6.33871 -0.743874 -0.3542 -12.6751 -1.51681 -0.354202 -12.6751 -1.51681 -5.00775 2.73262 -20.7622 -14.831 -19.0511 -19.9413 3.81503 38.2807 1.95087 132.172 -37.1586 -1.77864 61.5059 -56.7132 44.8795 88.9426 43.6207 -2.84488 1.98785e-016 4.77083e-015 -1.26725e-015 3.51733e-032 1.59028e-015 -1.26725e-015 -7.95139e-016 1.59028e-015 -1.14301e-015 1.98785e-016 4.77083e-015 -1.26725e-015 -0.0128283 0.00233481 8.68584e-005 7.95139e-016 -1.59028e-015 -5.36719e-015 1.98785e-016 4.77083e-015 -1.26725e-015 -0.0160502 0.00299178 0.000855194 -5.96354e-016 -3.18055e-015 1.21756e-015 1.98785e-016 4.77083e-015 -1.26725e-015 -0.0126029 0.0031273 0.00283105 -5.24894e-006 -9.28758e-006 -8.86301e-007 1.98785e-016 4.77083e-015 -1.26725e-015 3.51733e-032 1.59028e-015 -1.26725e-015 -7.95139e-016 1.59028e-015 -1.14301e-015 44.5405 4.14644 -12.6516 -107.663 -47.5066 18.4439 -50.6216 -56.5972 -39.0834 -57.7267 -15.7589 -3.39999 -5.52179e-006 -2.85559e-006 -2.1964e-006 -6.4317e-006 3.23157e-006 2.86332e-006 3.03456e-032 1.59028e-015 -1.09332e-015 -5.52179e-006 -2.85559e-006 -2.1964e-006 0.0129554 0.00231026 -8.76116e-005 -1.16364e-006 -4.12275e-006 3.48008e-006 -5.52179e-006 -2.85559e-006 -2.1964e-006 0.0163344 0.00303748 -0.00087738 -2.38542e-015 3.18055e-015 -2.48481e-015 -5.52179e-006 -2.85559e-006 -2.1964e-006 0.0145838 0.00367497 -0.00326405 -4.2806e-006 -4.92554e-006 3.66939e-006 -5.52179e-006 -2.85559e-006 -2.1964e-006 -6.4317e-006 3.23157e-006 2.86332e-006 3.03456e-032 1.59028e-015 -1.09332e-015 -89.0989 -25.0312 -87.3266 130.014 80.0801 -127.022 -22.973 42.5829 23.9716 3.61154e-007 9.81891e-006 -3.54452e-006 89.0932 -25.0391 87.3051 -130.007 80.081 127.005 22.9531 42.5849 -23.9702 7.32528e-006 -4.90048e-007 -2.30972e-006 
0.805321 13.6696 13.4723 175.986 -88.2333 -3.87974 -0.129228 -6.62417 -0.745074 -0.349387 -13.2461 -1.52072 -0.349389 -13.2461 -1.52072 -5.00712 2.57304 -20.7762 -14.8571 -19.3337 -20.0206 4.0508 38.7629 1.43657 131.992 -37.1439 -1.92189 60.5965 -56.5496 44.1226 88.9426 43.6207 -2.8449 -3.15881e-006 -4.81002e-008 1.97431e-006 -5.96354e-016 0 -3.08116e-015 6.41051e-007 -1.23806e-005 -7.89407e-006 -3.15881e-006 -4.81002e-008 1.97431e-006 -0.0128079 0.00234453 8.23565e-005 5.96354e-016 0 -3.73964e-015 -3.15881e-006 -4.81002e-008 1.97431e-006 -0.0160448 0.00299736 0.000862642 -3.97569e-016 -3.18055e-015 1.98785e-016 -3.15881e-006 -4.81002e-008 1.97431e-006 -0.0126156 0.00312981 0.00283573 -1.98785e-016 -1.59028e-015 5.41688e-015 -3.15881e-006 -4.81002e-008 1.97431e-006 -5.96354e-016 0 -3.08116e-015 6.41051e-007 -1.23806e-005 -7.89407e-006 44.6763 4.41775 -12.6045 -107.525 -47.4064 18.5652 -49.9468 -56.3903 -38.5149 -57.5337 -15.9555 -3.47557 7.95139e-016 0 2.05742e-014 2.38542e-015 1.59028e-015 2.05742e-014 5.56597e-015 -1.59028e-015 1.35174e-014 7.95139e-016 0 2.05742e-014 0.0129452 0.00230209 -8.4323e-005 8.30655e-006 7.13254e-006 -8.92084e-006 7.95139e-016 0 2.05742e-014 0.016334 0.00304614 -0.000883627 -2.38542e-015 3.18055e-015 -2.18663e-015 7.95139e-016 0 2.05742e-014 0.0145733 0.00366238 -0.00326822 3.82256e-006 9.95881e-007 4.86329e-007 7.95139e-016 0 2.05742e-014 2.38542e-015 1.59028e-015 2.05742e-014 5.56597e-015 -1.59028e-015 1.35174e-014 -89.5403 -25.4914 -87.9467 130.094 80.0688 -127.092 -22.328 42.7712 23.4781 -8.86294e-006 1.23603e-007 2.9056e-007 89.5346 -25.4992 87.9255 -130.085 80.0698 127.074 22.3086 42.7731 -23.477 8.78771e-007 9.152e-006 -2.86385e-006 
0.805801 13.8213 13.5359 177.088 -87.4574 -2.77373 -0.124684 -6.90956 -0.74622 -0.344585 -13.8168 -1.52454 -0.344587 -13.8169 -1.52455 -5.00652 2.41348 -20.7902 -14.8837 -19.6164 -20.1002 4.2937 39.2434 0.916343 131.813 -37.1289 -2.06501 59.6952 -56.3795 43.3739 88.9426 43.6207 -2.84488 -3.97569e-016 -1.59028e-015 4.53478e-016 -6.4605e-016 -1.59028e-015 6.1499e-016 9.93923e-017 -1.59028e-015 -5.72127e-015 -3.97569e-016 -1.59028e-015 4.53478e-016 -0.0128151 0.00233384 9.17342e-005 -4.96962e-017 -1.59028e-015 9.56651e-016 -3.97569e-016 -1.59028e-015 4.53478e-016 -0.0160521 0.00298737 0.000868038 1.04362e-015 3.18055e-015 -2.26118e-015 -3.97569e-016 -1.59028e-015 4.53478e-016 -0.0125677 0.00311583 0.00283259 1.73937e-015 -1.59028e-015 2.18663e-015 -3.97569e-016 -1.59028e-015 4.53478e-016 -6.4605e-016 -1.59028e-015 6.1499e-016 9.93923e-017 -1.59028e-015 -5.72127e-015 44.812 4.68919 -12.5581 -107.388 -47.3061 18.686 -49.2795 -56.1797 -37.954 -57.3408 -16.1523 -3.55056 1.20058e-005 -3.49924e-007 6.64697e-006 3.31043e-032 1.59028e-015 -1.19271e-015 -0 0 1.68967e-015 1.20058e-005 -3.49924e-007 6.64697e-006 0.012946 0.00232983 -9.8147e-005 2.38542e-015 -4.77083e-015 -1.49089e-015 1.20058e-005 -3.49924e-007 6.64697e-006 0.0163425 0.00304792 -0.000887513 7.95139e-016 -3.18055e-015 3.97569e-015 1.20058e-005 -3.49924e-007 6.64697e-006 0.0145927 0.00368556 -0.00327529 1.65521e-032 -1.59028e-015 5.96354e-016 1.20058e-005 -3.49924e-007 6.64697e-006 3.31043e-032 1.59028e-015 -1.19271e-015 -0 0 1.68967e-015 -89.9888 -25.9479 -88.5728 130.174 80.0574 -127.163 -21.6786 42.9549 22.9799 -1.96562e-005 8.75337e-006 2.16795e-006 89.9835 -25.9549 88.5522 -130.166 80.0583 127.146 21.6599 42.9568 -22.9791 4.36279e-006 -6.83222e-007 -2.24057e-006 
0.806286 13.9736 13.5981 177.673 -86.6813 -2.18411 -0.120132 -7.19476 -0.747306 -0.339791 -14.3873 -1.52827 -0.339792 -14.3874 -1.52827 -5.00596 2.25381 -20.8042 -14.9107 -19.8991 -20.1801 4.54386 39.7219 0.390037 131.633 -37.1135 -2.2081 58.8023 -56.2028 42.6337 88.9426 43.6207 -2.84488 4.72114e-016 4.77083e-015 -9.84295e-015 9.93923e-016 -1.59028e-015 -4.41053e-016 -7.70291e-016 0 -6.89224e-015 4.72114e-016 4.77083e-015 -9.84295e-015 -0.0128254 0.00232597 8.21868e-005 1.53469e-006 6.21595e-006 1.06144e-005 4.72114e-016 4.77083e-015 -9.84295e-015 -0.0160577 0.00298357 0.000850847 -3.16135e-006 9.0993e-006 2.04908e-006 4.72114e-016 4.77083e-015 -9.84295e-015 -0.012625 0.00311586 0.0028313 -5.46658e-016 -1.59028e-015 -4.83606e-015 4.72114e-016 4.77083e-015 -9.84295e-015 9.93923e-016 -1.59028e-015 -4.41053e-016 -7.70291e-016 0 -6.89224e-015 44.9475 4.96065 -12.5122 -107.251 -47.2055 18.8061 -48.6196 -55.9657 -37.4006 -57.148 -16.3494 -3.6249 3.97569e-015 -1.59028e-015 1.3418e-014 3.97569e-015 -1.59028e-015 1.65985e-014 4.77083e-015 -1.59028e-015 1.64991e-014 3.97569e-015 -1.59028e-015 1.3418e-014 0.0129557 0.00230979 -8.6289e-005 7.95139e-016 -4.77083e-015 -1.88845e-015 3.97569e-015 -1.59028e-015 1.3418e-014 0.016333 0.00303578 -0.000875285 -2.38542e-015 1.59028e-015 -4.07509e-015 3.97569e-015 -1.59028e-015 1.3418e-014 0.0145833 0.00366955 -0.00326169 1.87509e-006 1.01022e-005 -6.06253e-006 3.97569e-015 -1.59028e-015 1.3418e-014 3.97569e-015 -1.59028e-015 1.65985e-014 4.77083e-015 -1.59028e-015 1.64991e-014 -90.4449 -26.3999 -89.2054 130.257 80.0456 -127.237 -21.0251 43.1341 22.4771 -2.96098e-006 -1.25343e-006 1.53641e-007 90.4398 -26.4065 89.1852 -130.249 80.0465 127.22 21.007 43.136 -22.4767 3.84903e-006 4.70702e-006 -2.91702e-006 
